<?xml version="1.0" encoding="UTF-8"?>
<svg id="Layer_2" data-name="Layer 2" xmlns="http://www.w3.org/2000/svg" viewBox="0 0 431.69 490.41">
  <defs>
    <style>
      .cls-1 {
        fill: #fff;
      }

      .cls-2 {
        fill: #214382;
      }
    </style>
  </defs>
  <g id="Layer_1-2" data-name="Layer 1">
    <rect class="cls-2" x="22.41" y="96.92" width="393.49" height="393.49" rx="33.2" ry="33.2"/>
    <circle class="cls-2" cx="91.72" cy="104.56" r="61.45"/>
    <circle class="cls-2" cx="61.45" cy="158.37" r="61.45"/>
    <circle class="cls-2" cx="188.33" cy="61.45" r="61.45"/>
    <circle class="cls-2" cx="293.81" cy="76.86" r="61.45"/>
    <circle class="cls-2" cx="370.24" cy="141.68" r="61.45"/>
    <g>
      <ellipse class="cls-1" cx="154.41" cy="158.37" rx="42.89" ry="50.75"/>
      <ellipse class="cls-1" cx="234.86" cy="158.37" rx="42.89" ry="50.75"/>
      <path d="M161.17,148.01l11.5-11.36c-4.52-5.96-11.03-9.7-18.26-9.7-13.67,0-24.75,13.37-24.75,29.85s11.08,29.85,24.75,29.85,24.75-13.37,24.75-29.85c0-1.33-.08-2.63-.22-3.91l-17.77-4.88Z"/>
      <path d="M240.04,148.01l11.5-11.36c-4.52-5.96-11.03-9.7-18.26-9.7-13.67,0-24.75,13.37-24.75,29.85s11.08,29.85,24.75,29.85,24.75-13.37,24.75-29.85c0-1.33-.08-2.63-.22-3.91l-17.77-4.88Z"/>
    </g>
  </g>
</svg>