<svg width="1247" height="637" viewBox="0 0 1247 637" fill="none" xmlns="http://www.w3.org/2000/svg">
<circle cx="396" cy="505" r="132" fill="#B2D9BA"/>
<rect x="176" y="136" width="894" height="365" fill="#B2D9BA"/>
<circle cx="630" cy="135" r="132" fill="#B2D9BA"/>
<circle cx="626" cy="489" r="132" fill="#B2D9BA"/>
<circle cx="396" cy="135" r="132" fill="#B2D9BA"/>
<circle cx="162" cy="132" r="132" fill="#B2D9BA"/>
<circle cx="132" cy="319" r="132" fill="#B2D9BA"/>
<circle cx="850" cy="135" r="132" fill="#B2D9BA"/>
<circle cx="1081" cy="135" r="132" fill="#B2D9BA"/>
<circle cx="1115" cy="301" r="132" fill="#B2D9BA"/>
<path d="M819.5 425.5C819.5 498.402 760.402 557.5 687.5 557.5C614.598 557.5 555.5 498.402 555.5 425.5C555.5 352.598 614.598 293.5 687.5 293.5C760.402 293.5 819.5 352.598 819.5 425.5Z" fill="#B2D9BA"/>
<circle cx="162" cy="499" r="132" fill="#B2D9BA"/>
<circle cx="850" cy="489" r="132" fill="#B2D9BA"/>
<circle cx="1081" cy="503" r="132" fill="#B2D9BA"/>
</svg>
