<svg width="470" height="504" viewBox="0 0 470 504" fill="none" xmlns="http://www.w3.org/2000/svg">
<g clip-path="url(#clip0_399_82)">
<path d="M414.485 99.6058H58.3675C38.4044 99.6058 22.2212 114.882 22.2212 133.726V469.88C22.2212 488.724 38.4044 504 58.3675 504H414.485C434.448 504 450.631 488.724 450.631 469.88V133.726C450.631 114.882 434.448 99.6058 414.485 99.6058Z" fill="#E4B3B6"/>
<path d="M99.8594 170.61C136.809 170.61 166.763 142.336 166.763 107.457C166.763 72.5791 136.809 44.3046 99.8594 44.3046C62.9097 44.3046 32.9561 72.5791 32.9561 107.457C32.9561 142.336 62.9097 170.61 99.8594 170.61Z" fill="#E4B3B6"/>
<path d="M66.9033 225.912C103.853 225.912 133.807 197.637 133.807 162.759C133.807 127.88 103.853 99.6058 66.9033 99.6058C29.9536 99.6058 0 127.88 0 162.759C0 197.637 29.9536 225.912 66.9033 225.912Z" fill="#E4B3B6"/>
<path d="M205.043 126.306C241.993 126.306 271.946 98.0312 271.946 63.1529C271.946 28.2745 241.993 0 205.043 0C168.093 0 138.14 28.2745 138.14 63.1529C138.14 98.0312 168.093 126.306 205.043 126.306Z" fill="#E4B3B6"/>
<path d="M319.884 142.143C356.833 142.143 386.787 113.868 386.787 78.9899C386.787 44.1115 356.833 15.837 319.884 15.837C282.934 15.837 252.98 44.1115 252.98 78.9899C252.98 113.868 282.934 142.143 319.884 142.143Z" fill="#E4B3B6"/>
<path d="M403.097 208.759C440.046 208.759 470 180.485 470 145.606C470 110.728 440.046 82.4533 403.097 82.4533C366.147 82.4533 336.193 110.728 336.193 145.606C336.193 180.485 366.147 208.759 403.097 208.759Z" fill="#E4B3B6"/>
<path d="M168.113 214.915C193.903 214.915 214.809 191.564 214.809 162.759C214.809 133.953 193.903 110.602 168.113 110.602C142.324 110.602 121.417 133.953 121.417 162.759C121.417 191.564 142.324 214.915 168.113 214.915Z" fill="white"/>
<path d="M255.703 214.915C281.492 214.915 302.399 191.564 302.399 162.759C302.399 133.953 281.492 110.602 255.703 110.602C229.913 110.602 209.006 133.953 209.006 162.759C209.006 191.564 229.913 214.915 255.703 214.915Z" fill="white"/>
<path d="M175.473 152.111L187.994 140.437C183.073 134.312 175.985 130.468 168.113 130.468C153.23 130.468 141.167 144.208 141.167 161.145C141.167 178.082 153.23 191.822 168.113 191.822C182.997 191.822 195.06 178.082 195.06 161.145C195.06 159.778 194.973 158.442 194.82 157.127L175.473 152.111Z" fill="black"/>
<path d="M261.342 152.111L273.863 140.437C268.942 134.312 261.854 130.468 253.983 130.468C239.099 130.468 227.036 144.208 227.036 161.145C227.036 178.082 239.099 191.822 253.983 191.822C268.866 191.822 280.929 178.082 280.929 161.145C280.929 159.778 280.842 158.442 280.689 157.127L261.342 152.111Z" fill="black"/>
</g>
<path d="M163 296.05C163 291.11 194.1 263 224.5 263C254.9 263 292.1 286.98 292.1 291.92C292.1 296.86 254.39 277.47 224 277.47C193.61 277.47 163 300.99 163 296.05Z" fill="white" stroke="white" stroke-miterlimit="10"/>
<defs>
<clipPath id="clip0_399_82">
<rect width="470" height="504" fill="white"/>
</clipPath>
</defs>
</svg>
