<svg width="393" height="333" viewBox="0 0 393 333" fill="none" xmlns="http://www.w3.org/2000/svg">
<g clip-path="url(#clip0_338_119)">
<path d="M385.485 99.6058H29.3676C9.40454 99.6058 -6.77872 114.882 -6.77872 133.726V469.88C-6.77872 488.724 9.40454 504 29.3676 504H385.485C405.448 504 421.631 488.724 421.631 469.88V133.726C421.631 114.882 405.448 99.6058 385.485 99.6058Z" fill="#E4B3B6"/>
<path d="M70.8596 170.61C107.809 170.61 137.763 142.336 137.763 107.457C137.763 72.5791 107.809 44.3046 70.8596 44.3046C33.9099 44.3046 3.9563 72.5791 3.9563 107.457C3.9563 142.336 33.9099 170.61 70.8596 170.61Z" fill="#E4B3B6"/>
<path d="M37.9033 225.912C74.853 225.912 104.807 197.637 104.807 162.759C104.807 127.88 74.853 99.6058 37.9033 99.6058C0.953646 99.6058 -29 127.88 -29 162.759C-29 197.637 0.953646 225.912 37.9033 225.912Z" fill="#E4B3B6"/>
<path d="M176.043 126.306C212.993 126.306 242.947 98.0312 242.947 63.1529C242.947 28.2745 212.993 0 176.043 0C139.094 0 109.14 28.2745 109.14 63.1529C109.14 98.0312 139.094 126.306 176.043 126.306Z" fill="#E4B3B6"/>
<path d="M290.884 142.143C327.834 142.143 357.787 113.868 357.787 78.9899C357.787 44.1115 327.834 15.837 290.884 15.837C253.934 15.837 223.981 44.1115 223.981 78.9899C223.981 113.868 253.934 142.143 290.884 142.143Z" fill="#E4B3B6"/>
<path d="M374.097 208.759C411.046 208.759 441 180.485 441 145.606C441 110.728 411.046 82.4533 374.097 82.4533C337.147 82.4533 307.193 110.728 307.193 145.606C307.193 180.485 337.147 208.759 374.097 208.759Z" fill="#E4B3B6"/>
<path d="M139.113 214.915C164.903 214.915 185.809 191.564 185.809 162.759C185.809 133.953 164.903 110.602 139.113 110.602C113.323 110.602 92.4167 133.953 92.4167 162.759C92.4167 191.564 113.323 214.915 139.113 214.915Z" fill="white"/>
<path d="M226.702 214.915C252.492 214.915 273.399 191.564 273.399 162.759C273.399 133.953 252.492 110.602 226.702 110.602C200.913 110.602 180.006 133.953 180.006 162.759C180.006 191.564 200.913 214.915 226.702 214.915Z" fill="white"/>
<path d="M146.473 152.112L158.993 140.437C154.072 134.312 146.985 130.468 139.113 130.468C124.23 130.468 112.167 144.208 112.167 161.145C112.167 178.082 124.23 191.822 139.113 191.822C153.996 191.822 166.059 178.082 166.059 161.145C166.059 159.778 165.972 158.442 165.82 157.127L146.473 152.112Z" fill="black"/>
<path d="M232.342 152.112L244.863 140.437C239.942 134.312 232.854 130.468 224.982 130.468C210.099 130.468 198.036 144.208 198.036 161.145C198.036 178.082 210.099 191.822 224.982 191.822C239.865 191.822 251.929 178.082 251.929 161.145C251.929 159.778 251.842 158.442 251.689 157.127L232.342 152.112Z" fill="black"/>
<circle cx="185" cy="320" r="6" fill="#D9D9D9"/>
<circle cx="210" cy="320" r="6" fill="#D9D9D9"/>
<circle cx="210" cy="320" r="5" fill="#737373"/>
</g>
<g clip-path="url(#clip1_338_119)">
<path d="M237.6 258.18C237.6 263.12 206.5 291.23 176.1 291.23C145.7 291.23 108.5 267.25 108.5 262.31C108.5 257.37 146.21 276.76 176.6 276.76C206.99 276.76 237.6 253.24 237.6 258.18Z" fill="white" stroke="white" stroke-miterlimit="10"/>
</g>
<defs>
<clipPath id="clip0_338_119">
<rect width="470" height="504" fill="white" transform="translate(-29)"/>
</clipPath>
<clipPath id="clip1_338_119">
<rect width="130.1" height="34.73" fill="white" transform="translate(108 257)"/>
</clipPath>
</defs>
</svg>
