<svg width="393" height="324" viewBox="0 0 393 324" fill="none" xmlns="http://www.w3.org/2000/svg">
<path d="M369.386 100.133H31.4534C12.5097 100.133 -2.84716 115.49 -2.84716 134.433V472.366C-2.84716 491.31 12.5097 506.666 31.4534 506.666H369.386C388.33 506.666 403.687 491.31 403.687 472.366V134.433C403.687 115.49 388.33 100.133 369.386 100.133Z" fill="#214382"/>
<path d="M68.7604 171.513C103.823 171.513 132.247 143.089 132.247 108.026C132.247 72.9631 103.823 44.539 68.7604 44.539C33.6975 44.539 5.27343 72.9631 5.27343 108.026C5.27343 143.089 33.6975 171.513 68.7604 171.513Z" fill="#214382"/>
<path d="M37.487 227.107C72.5499 227.107 100.974 198.683 100.974 163.62C100.974 128.557 72.5499 100.133 37.487 100.133C2.4241 100.133 -26 128.557 -26 163.62C-26 198.683 2.4241 227.107 37.487 227.107Z" fill="#214382"/>
<path d="M168.573 126.974C203.636 126.974 232.06 98.5499 232.06 63.487C232.06 28.4241 203.636 0 168.573 0C133.51 0 105.086 28.4241 105.086 63.487C105.086 98.5499 133.51 126.974 168.573 126.974Z" fill="#214382"/>
<path d="M277.549 142.895C312.612 142.895 341.036 114.471 341.036 79.4078C341.036 44.3449 312.612 15.9208 277.549 15.9208C242.487 15.9208 214.062 44.3449 214.062 79.4078C214.062 114.471 242.487 142.895 277.549 142.895Z" fill="#214382"/>
<path d="M356.513 209.864C391.576 209.864 420 181.439 420 146.377C420 111.314 391.576 82.8895 356.513 82.8895C321.45 82.8895 293.026 111.314 293.026 146.377C293.026 181.439 321.45 209.864 356.513 209.864Z" fill="#214382"/>
<path d="M133.528 216.052C158.001 216.052 177.84 192.577 177.84 163.62C177.84 134.662 158.001 111.188 133.528 111.188C109.056 111.188 89.2167 134.662 89.2167 163.62C89.2167 192.577 109.056 216.052 133.528 216.052Z" fill="white"/>
<path d="M216.645 216.052C241.118 216.052 260.957 192.577 260.957 163.62C260.957 134.662 241.118 111.188 216.645 111.188C192.173 111.188 172.334 134.662 172.334 163.62C172.334 192.577 192.173 216.052 216.645 216.052Z" fill="white"/>
<path d="M140.513 152.916L152.394 141.18C147.724 135.022 140.998 131.158 133.529 131.158C119.405 131.158 107.958 144.971 107.958 161.998C107.958 179.024 119.405 192.837 133.529 192.837C147.652 192.837 159.099 179.024 159.099 161.998C159.099 160.624 159.016 159.281 158.872 157.958L140.513 152.916Z" fill="black"/>
<path d="M221.997 152.916L233.878 141.18C229.208 135.022 222.483 131.158 215.013 131.158C200.89 131.158 189.443 144.971 189.443 161.998C189.443 179.024 200.89 192.837 215.013 192.837C229.136 192.837 240.583 179.024 240.583 161.998C240.583 160.624 240.501 159.281 240.356 157.958L221.997 152.916Z" fill="black"/>
<g clip-path="url(#clip0_338_118)">
<path d="M161 269.8C161.01 269.44 165.67 264.5 196.06 264.5C226.45 264.5 228.58 272.26 228.3 275.24C228.18 276.52 226.06 266.18 195.66 266.18C165.26 266.18 160.98 270.37 161 269.8Z" fill="white" stroke="white" stroke-miterlimit="10"/>
</g>
<defs>
<clipPath id="clip0_338_118">
<rect width="130.1" height="34.73" fill="white" transform="translate(147 236)"/>
</clipPath>
</defs>
</svg>
