<svg width="446" height="507" viewBox="0 0 446 507" fill="none" xmlns="http://www.w3.org/2000/svg">
<path d="M395.386 100.133H57.4534C38.5097 100.133 23.1528 115.49 23.1528 134.433V472.366C23.1528 491.31 38.5097 506.667 57.4534 506.667H395.386C414.33 506.667 429.687 491.31 429.687 472.366V134.433C429.687 115.49 414.33 100.133 395.386 100.133Z" fill="#214382"/>
<path d="M94.7604 171.513C129.823 171.513 158.247 143.089 158.247 108.026C158.247 72.9632 129.823 44.5391 94.7604 44.5391C59.6975 44.5391 31.2734 72.9632 31.2734 108.026C31.2734 143.089 59.6975 171.513 94.7604 171.513Z" fill="#214382"/>
<path d="M63.487 227.107C98.5499 227.107 126.974 198.683 126.974 163.62C126.974 128.557 98.5499 100.133 63.487 100.133C28.4241 100.133 0 128.557 0 163.62C0 198.683 28.4241 227.107 63.487 227.107Z" fill="#214382"/>
<path d="M194.573 126.974C229.636 126.974 258.06 98.5499 258.06 63.487C258.06 28.4241 229.636 0 194.573 0C159.51 0 131.086 28.4241 131.086 63.487C131.086 98.5499 159.51 126.974 194.573 126.974Z" fill="#214382"/>
<path d="M303.549 142.895C338.612 142.895 367.036 114.471 367.036 79.4079C367.036 44.345 338.612 15.9209 303.549 15.9209C268.487 15.9209 240.062 44.345 240.062 79.4079C240.062 114.471 268.487 142.895 303.549 142.895Z" fill="#214382"/>
<path d="M382.513 209.863C417.576 209.863 446 181.439 446 146.376C446 111.313 417.576 82.8894 382.513 82.8894C347.45 82.8894 319.026 111.313 319.026 146.376C319.026 181.439 347.45 209.863 382.513 209.863Z" fill="#214382"/>
<path d="M159.529 216.052C184.001 216.052 203.84 192.577 203.84 163.62C203.84 134.662 184.001 111.188 159.529 111.188C135.056 111.188 115.217 134.662 115.217 163.62C115.217 192.577 135.056 216.052 159.529 216.052Z" fill="white"/>
<path d="M242.645 216.052C267.118 216.052 286.957 192.577 286.957 163.62C286.957 134.662 267.118 111.188 242.645 111.188C218.173 111.188 198.334 134.662 198.334 163.62C198.334 192.577 218.173 216.052 242.645 216.052Z" fill="white"/>
<path d="M166.513 152.916L178.394 141.18C173.724 135.022 166.998 131.158 159.529 131.158C145.406 131.158 133.958 144.971 133.958 161.998C133.958 179.024 145.406 192.837 159.529 192.837C173.652 192.837 185.099 179.024 185.099 161.998C185.099 160.624 185.016 159.281 184.872 157.958L166.513 152.916Z" fill="black"/>
<path d="M247.997 152.916L259.878 141.18C255.209 135.022 248.483 131.158 241.013 131.158C226.89 131.158 215.443 144.971 215.443 161.998C215.443 179.024 226.89 192.837 241.013 192.837C255.136 192.837 266.583 179.024 266.583 161.998C266.583 160.624 266.501 159.281 266.356 157.958L247.997 152.916Z" fill="black"/>
<path d="M160 287.05C160 282.11 191.1 254 221.5 254C251.9 254 289.1 277.98 289.1 282.92C289.1 287.86 251.39 268.47 221 268.47C190.61 268.47 160 291.99 160 287.05Z" fill="white" stroke="white" stroke-miterlimit="10"/>
</svg>
