<svg width="154" height="56" viewBox="0 0 154 56" fill="none" xmlns="http://www.w3.org/2000/svg">
<path d="M63.9412 17V26H61.5772V17.888L62.1052 17.948L58.6252 26H56.1052L52.6132 17.972L53.1532 17.912V26H50.7892V17H54.6292L57.8572 24.728H56.8972L60.1012 17H63.9412ZM70.5692 26.192C69.5052 26.192 68.5692 25.996 67.7612 25.604C66.9612 25.212 66.3372 24.664 65.8892 23.96C65.4492 23.256 65.2292 22.436 65.2292 21.5C65.2292 20.564 65.4492 19.744 65.8892 19.04C66.3372 18.336 66.9612 17.788 67.7612 17.396C68.5692 17.004 69.5052 16.808 70.5692 16.808C71.6412 16.808 72.5772 17.004 73.3772 17.396C74.1772 17.788 74.8012 18.336 75.2492 19.04C75.6972 19.744 75.9212 20.564 75.9212 21.5C75.9212 22.436 75.6972 23.256 75.2492 23.96C74.8012 24.664 74.1772 25.212 73.3772 25.604C72.5772 25.996 71.6412 26.192 70.5692 26.192ZM70.5692 23.972C71.1532 23.972 71.6572 23.872 72.0812 23.672C72.5052 23.472 72.8292 23.188 73.0532 22.82C73.2852 22.452 73.4012 22.012 73.4012 21.5C73.4012 20.988 73.2852 20.548 73.0532 20.18C72.8292 19.812 72.5052 19.528 72.0812 19.328C71.6572 19.128 71.1532 19.028 70.5692 19.028C69.9932 19.028 69.4932 19.128 69.0692 19.328C68.6452 19.528 68.3172 19.812 68.0852 20.18C67.8532 20.548 67.7372 20.988 67.7372 21.5C67.7372 22.012 67.8532 22.452 68.0852 22.82C68.3172 23.188 68.6452 23.472 69.0692 23.672C69.4932 23.872 69.9932 23.972 70.5692 23.972ZM82.1473 26.192C81.0833 26.192 80.1473 25.996 79.3393 25.604C78.5393 25.212 77.9153 24.664 77.4673 23.96C77.0273 23.256 76.8073 22.436 76.8073 21.5C76.8073 20.564 77.0273 19.744 77.4673 19.04C77.9153 18.336 78.5393 17.788 79.3393 17.396C80.1473 17.004 81.0833 16.808 82.1473 16.808C83.2193 16.808 84.1553 17.004 84.9553 17.396C85.7553 17.788 86.3793 18.336 86.8273 19.04C87.2753 19.744 87.4993 20.564 87.4993 21.5C87.4993 22.436 87.2753 23.256 86.8273 23.96C86.3793 24.664 85.7553 25.212 84.9553 25.604C84.1553 25.996 83.2193 26.192 82.1473 26.192ZM82.1473 23.972C82.7313 23.972 83.2353 23.872 83.6593 23.672C84.0833 23.472 84.4073 23.188 84.6313 22.82C84.8633 22.452 84.9793 22.012 84.9793 21.5C84.9793 20.988 84.8633 20.548 84.6313 20.18C84.4073 19.812 84.0833 19.528 83.6593 19.328C83.2353 19.128 82.7313 19.028 82.1473 19.028C81.5713 19.028 81.0713 19.128 80.6473 19.328C80.2233 19.528 79.8953 19.812 79.6633 20.18C79.4313 20.548 79.3153 20.988 79.3153 21.5C79.3153 22.012 79.4313 22.452 79.6633 22.82C79.8953 23.188 80.2233 23.472 80.6473 23.672C81.0713 23.872 81.5713 23.972 82.1473 23.972ZM93.2694 17C94.3334 17 95.2654 17.188 96.0654 17.564C96.8734 17.932 97.4974 18.456 97.9374 19.136C98.3854 19.808 98.6094 20.596 98.6094 21.5C98.6094 22.404 98.3854 23.196 97.9374 23.876C97.4974 24.548 96.8734 25.072 96.0654 25.448C95.2654 25.816 94.3334 26 93.2694 26H88.7814V17H93.2694ZM91.2534 24.956L90.0654 23.792H93.4614C93.9974 23.792 94.4614 23.7 94.8534 23.516C95.2534 23.324 95.5614 23.056 95.7774 22.712C95.9934 22.368 96.1014 21.964 96.1014 21.5C96.1014 21.028 95.9934 20.624 95.7774 20.288C95.5614 19.944 95.2534 19.68 94.8534 19.496C94.4614 19.304 93.9974 19.208 93.4614 19.208H90.0654L91.2534 18.044V24.956ZM64.3852 36.596L64.5892 36.128C65.2852 36.144 65.8572 36.252 66.3052 36.452C66.7612 36.644 67.1012 36.916 67.3252 37.268C67.5492 37.612 67.6612 38.012 67.6612 38.468C67.6612 38.956 67.5492 39.392 67.3252 39.776C67.1012 40.152 66.7652 40.452 66.3172 40.676C65.8772 40.892 65.3252 41 64.6612 41H58.0132L58.7092 36.38L58.0132 32H64.4212C65.2532 32 65.9012 32.196 66.3652 32.588C66.8292 32.972 67.0612 33.508 67.0612 34.196C67.0612 34.572 66.9732 34.932 66.7972 35.276C66.6212 35.62 66.3372 35.912 65.9452 36.152C65.5612 36.384 65.0412 36.532 64.3852 36.596ZM60.4732 40.424L59.5132 39.26H63.9892C64.3492 39.26 64.6292 39.172 64.8292 38.996C65.0292 38.82 65.1292 38.576 65.1292 38.264C65.1292 37.952 65.0212 37.704 64.8052 37.52C64.5892 37.328 64.2692 37.232 63.8452 37.232H60.1492V35.528H63.5092C63.7972 35.528 64.0372 35.444 64.2292 35.276C64.4292 35.1 64.5292 34.864 64.5292 34.568C64.5292 34.328 64.4452 34.132 64.2772 33.98C64.1092 33.82 63.8692 33.74 63.5572 33.74H59.5252L60.4732 32.576L61.0852 36.38L60.4732 40.424ZM68.883 32H71.367V41H68.883V32ZM75.8631 33.092H78.3591V41H75.8631V33.092ZM72.4311 32H81.7911V34.208H72.4311V32ZM90.5554 35.6V37.4H83.9674V35.6H90.5554ZM85.6594 36.5L85.0714 40.112L84.0634 38.984H90.9514V41H82.5874L83.2714 36.5L82.5874 32H90.8914V34.016H84.0634L85.0714 32.888L85.6594 36.5Z" fill="#FBBA18"/>
<path d="M75 2.5C87.0348 2.5 97.8114 5.53992 105.499 10.3232C113.223 15.1295 117.5 21.4464 117.5 28C117.5 34.5536 113.223 40.8705 105.499 45.6768C97.8114 50.4601 87.0348 53.5 75 53.5C62.9652 53.5 52.1886 50.4601 44.501 45.6768C36.7767 40.8705 32.5 34.5536 32.5 28C32.5 21.4464 36.7767 15.1295 44.501 10.3232C52.1886 5.53992 62.9652 2.5 75 2.5Z" stroke="#FBBA18" stroke-width="5"/>
</svg>
