<?xml version="1.0" encoding="UTF-8"?>
<svg id="Layer_2" xmlns="http://www.w3.org/2000/svg" xmlns:xlink="http://www.w3.org/1999/xlink" version="1.1" viewBox="0 0 431.7 490.4">
  <!-- Generator: Adobe Illustrator 29.5.1, SVG Export Plug-In . SVG Version: 2.1.0 Build 141)  -->
  <defs>
    <style>
      .st0 {
        fill: none;
      }

      .st1 {
        clip-path: url(#clippath-1);
      }

      .st2, .st3 {
        fill: #fff;
      }

      .st3 {
        stroke: #fff;
        stroke-miterlimit: 10;
      }

      .st4 {
        fill: #e4b3b6;
      }

      .st5 {
        clip-path: url(#clippath);
      }
    </style>
    <clipPath id="clippath">
      <rect class="st0" y="27.5" width="431.7" height="462.9"/>
    </clipPath>
    <clipPath id="clippath-1">
      <rect class="st0" x="125.8" y="263.5" width="119.5" height="31.9"/>
    </clipPath>
  </defs>
  <g class="st5">
    <g>
      <path class="st4" d="M380.7,119H53.6c-18.3,0-33.2,14-33.2,31.3v308.8c0,17.3,14.9,31.3,33.2,31.3h327.1c18.3,0,33.2-14,33.2-31.3V150.3c0-17.3-14.9-31.3-33.2-31.3Z"/>
      <path class="st4" d="M91.7,184.2c33.9,0,61.5-26,61.5-58s-27.5-58-61.5-58-61.4,26-61.4,58,27.5,58,61.4,58Z"/>
      <path class="st4" d="M61.4,235c33.9,0,61.5-26,61.5-58s-27.5-58-61.5-58S0,144.9,0,177s27.5,58,61.4,58Z"/>
      <path class="st4" d="M188.3,143.5c33.9,0,61.4-26,61.4-58s-27.5-58-61.4-58-61.4,26-61.4,58,27.5,58,61.4,58Z"/>
      <path class="st4" d="M293.8,158c33.9,0,61.4-26,61.4-58s-27.5-58-61.4-58-61.5,26-61.5,58,27.5,58,61.5,58Z"/>
      <path class="st4" d="M370.2,219.2c33.9,0,61.4-26,61.4-58s-27.5-58-61.4-58-61.5,26-61.5,58,27.5,58,61.5,58Z"/>
      <path class="st2" d="M154.4,224.9c23.7,0,42.9-21.4,42.9-47.9s-19.2-47.9-42.9-47.9-42.9,21.4-42.9,47.9,19.2,47.9,42.9,47.9Z"/>
      <path class="st2" d="M234.9,224.9c23.7,0,42.9-21.4,42.9-47.9s-19.2-47.9-42.9-47.9-42.9,21.4-42.9,47.9,19.2,47.9,42.9,47.9Z"/>
      <path d="M161.2,167.2l11.5-10.7c-4.5-5.6-11-9.2-18.3-9.2-13.7,0-24.7,12.6-24.7,28.2s11.1,28.2,24.7,28.2,24.8-12.6,24.8-28.2,0-2.5-.2-3.7l-17.8-4.6Z"/>
      <path d="M240,167.2l11.5-10.7c-4.5-5.6-11-9.2-18.3-9.2-13.7,0-24.8,12.6-24.8,28.2s11.1,28.2,24.8,28.2,24.7-12.6,24.7-28.2,0-2.5-.2-3.7l-17.8-4.6Z"/>
    </g>
  </g>
  <g class="st1">
    <path class="st3" d="M244.9,264.6c0,4.5-28.6,30.4-56.5,30.4s-62.1-22-62.1-26.6,34.6,13.3,62.5,13.3,56-21.6,56-17.1Z"/>
  </g>
</svg>